<svg xmlns="http://www.w3.org/2000/svg" width="52.5" height="53.5">
    <path fill="none" fill-rule="evenodd" stroke="#E22026" stroke-width="3" d="M25.531 2.481c13.145 0 23.8 10.656 23.8 23.8 0 13.145-10.655 23.8-23.8 23.8-13.144 0-23.8-10.655-23.8-23.8 0-13.144 10.656-23.8 23.8-23.8z"/>
    <path fill="#E22026" fill-rule="evenodd" d="M36.704 24.625l-15.547-9.328a1.786 1.786 0 0 0-.925-.273c-.87 0-1.502.693-1.502 1.647v18.715c0 .952.632 1.646 1.502 1.646.313 0 .624-.093.925-.274l15.547-9.327c.544-.327.858-.838.857-1.403.001-.564-.311-1.077-.857-1.403z"/>
</svg>
